# xmcd
# 
# Track frame offsets:
#     150
#     13190
#     34567
#     58486
#     80840
#     102745
#     123615
#     141053
#     158628
#     185790
#     200685
# 
# Disc length: 3034
# 
# Revision: 0
# Processed by: cddbd v1.5.2PL0 Copyright (c) Steve Scherf et al.
# Submitted via: BonkEnc v1.0.15
# 
DISCID=a70bd80b
DTITLE=Various Artist - CHICAGO IS BURNING!!! - 11 tracks of Contemporary Chicago Blues -
DYEAR=0
DGENRE=Blues
TTITLE0=CALROS JOHNSON - Hey Pretty Baby 2
TTITLE1=CARL WEATHERSBY - It's You That I Want
TTITLE2=CHICO BANKS - Candy Lickin' Man
TTITLE3=RICO McFARLAND - Tired Of Being Alone
TTITLE4=MELVIN TAYLOR and THE SLACK BAND - Rendezvous With The Blues
TTITLE5=BIG TIME SARAH - The Thrill Is Gone
TTITLE6=PISTOL PETE - Silver Screen
TTITLE7=RONNIE BAKER BROOKS - You Make Me Feel So Good
TTITLE8=HOWARD SCOTT and THE WORLD BAND - No Good Woman
TTITLE9=CHARLIE LOVE - The Blues Keeps Following Me
TTITLE10=LURRIE BELL - I'll Be Your 44
EXTD=blues and soul records No.53
EXTT0=
EXTT1=
EXTT2=
EXTT3=
EXTT4=
EXTT5=
EXTT6=
EXTT7=
EXTT8=
EXTT9=
EXTT10=
PLAYORDER=
